<?xml version="1.0" encoding="utf-8"?>
<!-- Generator: Adobe Illustrator 27.0.0, SVG Export Plug-In . SVG Version: 6.00 Build 0)  -->
<svg version="1.1" id="Слой_1" xmlns="http://www.w3.org/2000/svg" xmlns:xlink="http://www.w3.org/1999/xlink" x="0px" y="0px"
	 viewBox="0 0 800 320.2" style="enable-background:new 0 0 800 320.2;" xml:space="preserve">
<style type="text/css">
	.st0{fill:#A00000;}
</style>
<path class="st0" d="M152.6,119.5v-3.7c0-11.4,0-22.8,0-34.3c0-7.6,3.7-11.3,11.3-11.4c4.7,0,9.5,0,14.2,0c3.8,0,5.4,1.2,5.4,4
	s-1.7,3.8-5.5,3.8c-4.7,0-9.5-0.1-14.2,0.1c-1.1,0-2.1,1.1-3.2,1.6c0.9,0.7,1.7,1.9,2.7,2.1c8,1.7,11.3,5.1,12.7,13
	c0.1,0.9,1.2,1.6,1.8,2.3c0.6-0.9,1.7-1.7,1.8-2.6c0.3-3.5-1.4-6.9-6.1-12.8c2,0,3.5,0,5.1,0c6,0,8.9-3,9-9.2c0-11.7,0-23.5,0-35.2
	c0-1,0-2.1,0.1-3.1c0.1-1.9,1.6-3.4,3.5-3.3c0.1,0,0.2,0,0.2,0c1.9-0.1,3.5,1.4,3.6,3.3c0.1,0.8,0.1,1.6,0.1,2.5
	c0,15.1,0,30.3,0,45.4c0,11.6-6.8,18.6-18.4,19c-5.4,0.2-10.9,0.4-16.2-2.8v94.4c-26.4,2.6-52.7,4.4-80-0.1c2.6-3.7,4.6-7,7.1-9.9
	c6.4-7.4,15.1-12.4,24.6-14.2c1.3-0.4,2.3-1.3,2.9-2.5c2.4-6.2,4.5-12.6,6.9-19.6c2.3,6.4,4.5,12.1,6.4,18c0.6,2.7,2.8,4.7,5.5,5.1
	c7.2,1.8,13.7,5.7,18.6,11.2c0.1-1.6,0.1-2.6,0.2-3.6c0-14.1-0.1-28.2,0.1-42.3c0-2.5-0.8-3.6-3.1-4.5
	c-45-17.9-95.4,10.5-103.5,58.2c-6.4,37.8,15.2,74.3,51.8,85.9c46.6,14.8,92.3-16,99.1-60.5c4-26.1-3.7-48.5-22.3-67.2
	c-2.6-2.6-2.8-6.4-0.3-8.8c2.3-2.4,6-2.4,8.4-0.2c0.2,0.1,0.3,0.3,0.4,0.5c12.5,14.5,22.2,30.3,25,49.7c3.5,24.6-1.7,47.2-16.9,66.8
	c-18.6,23.9-43.4,35.5-73.8,34.4c-41.3-1.5-76.6-32.6-82.8-74.9c-6.7-45.7,24.1-89.7,69.1-98.6c15.1-3,30.7-2.1,45.3,2.8
	C150,118.9,151.1,119.1,152.6,119.5z"/>
<path class="st0" d="M75.2,199.8c0.7,2.4,1.1,4.6,1.9,6.6c1,2.7,3.3,4.8,6.2,5.6c8,2.4,16.1,4.9,24.1,7.3c7.1,2.1,10.7,0,13.2-7.5
	c0.4,0.9,0.7,1.6,1,2.3c2,4.9,5.7,6.9,10.9,5.5c8.8-2.4,17.5-5,26.2-7.8c4-1.3,5.8-4.6,6.7-8.6c0.2-1.1,0.4-2.2,0.6-3.3
	c7,1.9,10.4,11.5,6.6,18.5c-1.6,3-4.2,5.4-7.4,6.7c-1.4,0.6-2.5,1.8-3.2,3.2c-7.3,17.3-23.5,28.3-41.6,28.1s-34.1-11.3-41.2-28.7
	c-0.7-1.2-1.9-2.2-3.2-2.7c-5.1-2.3-8.5-7.2-8.8-12.8C67.1,206.8,70.3,201.9,75.2,199.8z"/>
<path class="st0" d="M152.5,70v-9.7c0-8,0-16,0-24c0-3.7,1.3-5.4,4-5.4s3.8,1.7,3.9,5.2c0,9.2-0.1,18.5,0.1,27.8
	c0,2-0.6,2.9-2.5,3.4C156.1,68.1,154.3,69,152.5,70z"/>
<path class="st0" d="M171.9,66.2h-7.7c0-2.7-0.4-5.4,0.2-7.9c0.6-1.6,1.9-2.9,3.6-3.4c2.1-0.5,3.7,1.1,3.9,3.3
	C172.1,60.8,171.9,63.3,171.9,66.2z"/>
<path class="st0" d="M183.4,66.9l-7.6-0.9c0-2.5-0.1-4.9,0-7.3s1.4-3.9,3.8-3.9c1.9-0.2,3.6,1.2,3.7,3.1c0,0.2,0,0.3,0,0.5
	C183.5,61.2,183.4,63.9,183.4,66.9z"/>
<path class="st0" d="M282.9,181.5h-19.1c-7,0-12.7-5.7-12.7-12.7h6.3c0,3.5,2.8,6.3,6.4,6.4h19.1c3.5-0.1,6.2-3.1,6.1-6.6
	c-0.1-3.3-2.8-6-6.1-6.1h-19.1c-7-0.2-12.5-6-12.3-13.1c0.2-6.7,5.6-12.2,12.3-12.3h19.1c7,0.1,12.6,5.7,12.7,12.7h-6.4
	c0-3.5-2.8-6.3-6.4-6.4h-19.1c-3.5,0.1-6.2,3.1-6.1,6.6c0.1,3.3,2.8,6,6.1,6.1h19.1c7,0.2,12.5,6,12.3,13.1
	C295,175.9,289.6,181.3,282.9,181.5L282.9,181.5z"/>
<path class="st0" d="M345.8,181.5h-6.4v-12.7h-31.8v12.7h-6.4v-31.8c0.1-7,5.7-12.7,12.7-12.7h19c7,0.2,12.6,5.7,12.7,12.7
	L345.8,181.5z M314,143.4c-3.5,0-6.3,2.8-6.4,6.4v12.7h31.8v-12.7c0-3.5-2.9-6.3-6.4-6.4H314z"/>
<path class="st0" d="M396.6,181.5h-6.4l-31.8-34.2v34.2h-6.4V137h6.4l31.8,33.7V137h6.4V181.5z"/>
<path class="st0" d="M447.4,168.8c-0.1,7-5.7,12.6-12.7,12.7h-31.8V137h31.8c7,0.1,12.6,5.7,12.7,12.7L447.4,168.8z M441,149.7
	c0-3.5-2.8-6.3-6.4-6.4h-25.4v31.8h25.4c3.5,0,6.3-2.9,6.4-6.4L441,149.7z"/>
<path class="st0" d="M459.5,175.1h38.1v6.4h-44.5V137h6.4V175.1z"/>
<path class="st0" d="M507.1,156.1h31.8v6.4h-31.8v12.7h38.1v6.4h-44.5V137h44.5v6.4h-38.1V156.1z"/>
<path class="st0" d="M590.3,181.5l-12.7-12.7h-20.9v12.7h-6.3V137h31.8c7,0.1,12.6,5.7,12.7,12.7v6.4c0,5.5-3.6,10.3-8.8,12.1
	l8.8,8.9v4.5L590.3,181.5z M588.4,149.7c0-3.5-2.8-6.3-6.3-6.4h-25.4v19.1h25.4c3.5,0,6.3-2.8,6.3-6.4V149.7z"/>
<path class="st0" d="M291.7,257.7L279,245h-20.9v12.7h-6.4v-44.5h31.8c7,0.1,12.6,5.8,12.7,12.8v6.4c-0.1,5.5-3.6,10.3-8.8,12.1
	l8.8,8.8v4.5L291.7,257.7z M289.8,226c0-3.5-2.9-6.3-6.4-6.4h-25.4v19h25.4c3.5,0,6.3-2.8,6.4-6.4V226z"/>
<path class="st0" d="M345.8,245c0,7-5.7,12.7-12.8,12.7h-19c-7,0-12.7-5.6-12.7-12.6c0,0,0-0.1,0-0.1v-19c0-7,5.7-12.7,12.7-12.8h19
	c7,0.1,12.6,5.8,12.8,12.8V245z M339.4,226c0-3.5-2.9-6.3-6.4-6.4h-19c-3.5,0-6.3,2.8-6.4,6.4v19c0,3.5,2.9,6.3,6.4,6.4h19
	c3.5,0,6.4-2.8,6.4-6.4c0,0,0,0,0,0V226z"/>
<path class="st0" d="M382.6,213.2c7,0.2,12.6,5.8,12.7,12.8H389c0-3.5-2.8-6.3-6.4-6.4h-19.1c-3.5,0-6.3,2.8-6.4,6.4v19
	c0,3.5,2.8,6.3,6.4,6.4h19.1c3.5,0,6.4-2.8,6.4-6.3c0,0,0,0,0,0h6.4c-0.1,7-5.7,12.6-12.7,12.7h-19.1c-7,0-12.7-5.7-12.7-12.7v-19
	c0.1-7,5.7-12.6,12.7-12.7L382.6,213.2z"/>
<path class="st0" d="M422.6,235.5l22.2,22.2h-9l-19.1-19.1h-10.1v19.1h-6.4v-44.5h6.4v19.1h10.1l19.1-19.1h9L422.6,235.5z"/>
<path class="st0" d="M504.6,257.7h-19.1c-7,0-12.7-5.7-12.7-12.7h6.4c0,3.5,2.8,6.3,6.4,6.4h19.1c3.5-0.1,6.2-3.1,6.1-6.6
	c-0.1-3.3-2.8-6-6.1-6.1h-19.1c-7-0.2-12.5-6-12.3-13.1c0.2-6.7,5.6-12.2,12.3-12.3h19.1c7,0.2,12.6,5.8,12.7,12.8h-6.4
	c0-3.5-2.8-6.3-6.4-6.4h-19.1c-3.5,0-6.4,2.8-6.4,6.3c0,3.5,2.8,6.4,6.3,6.4c0,0,0,0,0,0h19.1c7,0.2,12.5,6,12.3,13.1
	C516.7,252.2,511.3,257.6,504.6,257.7L504.6,257.7z"/>
<path class="st0" d="M554.2,213.2c7,0.2,12.6,5.8,12.7,12.8h-6.3c0-3.5-2.8-6.3-6.3-6.4h-19.1c-3.5,0-6.3,2.8-6.3,6.4v19
	c0,3.5,2.8,6.3,6.3,6.4h19.1c3.5,0,6.3-2.9,6.3-6.4h6.3c-0.1,7-5.7,12.6-12.7,12.7h-19.1c-7,0-12.7-5.7-12.7-12.7v-19
	c0.1-7,5.7-12.6,12.7-12.7L554.2,213.2z"/>
<path class="st0" d="M578.3,232.3h31.8v-19.1h6.3v44.5h-6.3v-19.1h-31.8v19.1h-6.3v-44.5h6.3V232.3z"/>
<path class="st0" d="M666.6,245c0,7-5.7,12.7-12.7,12.7h-19.1c-7,0-12.7-5.6-12.7-12.6c0,0,0-0.1,0-0.1v-19c0-7,5.7-12.7,12.7-12.7
	h19.1c7,0.2,12.5,5.8,12.7,12.7V245z M660.2,226c0-3.5-2.8-6.3-6.3-6.4h-19.1c-3.5,0-6.3,2.8-6.3,6.4v19c0,3.5,2.8,6.3,6.3,6.4h19.1
	c3.5,0,6.3-2.9,6.3-6.4V226z"/>
<path class="st0" d="M716.2,245c0,7-5.7,12.7-12.7,12.7h-19c-7,0-12.7-5.6-12.7-12.6c0,0,0-0.1,0-0.1v-19c0-7,5.7-12.7,12.7-12.7h19
	c7,0.2,12.6,5.8,12.7,12.7V245z M709.8,226c0-3.5-2.9-6.3-6.4-6.4h-19c-3.5,0-6.4,2.8-6.4,6.3c0,0,0,0,0,0v19c0,3.5,2.9,6.3,6.4,6.4
	h19c3.5,0,6.3-2.9,6.4-6.4L709.8,226z"/>
<path class="st0" d="M728.2,251.4h38.1v6.4h-44.5v-44.5h6.3V251.4z"/>
</svg>
