<?xml version="1.0" encoding="utf-8"?>
<!-- Generator: Adobe Illustrator 26.0.2, SVG Export Plug-In . SVG Version: 6.00 Build 0)  -->
<svg version="1.1" id="Слой_1" xmlns="http://www.w3.org/2000/svg" xmlns:xlink="http://www.w3.org/1999/xlink" x="0px" y="0px"
	 viewBox="0 0 320 320" style="enable-background:new 0 0 320 320;" xml:space="preserve">
<style type="text/css">
	.st0{fill:#A00000;}
</style>
<g>
	<path class="st0" d="M191.1,119.4v-3.7c0-11.4,0-22.8,0-34.3c0-7.6,3.7-11.3,11.3-11.4c4.7,0,9.5,0,14.2,0c3.8,0,5.4,1.2,5.4,4
		s-1.7,3.8-5.5,3.8c-4.7,0-9.5-0.1-14.2,0.1c-1.1,0-2.1,1.1-3.2,1.6c0.9,0.7,1.7,1.9,2.7,2.1c8,1.7,11.3,5.1,12.7,13
		c0.1,0.9,1.2,1.6,1.8,2.3c0.6-0.9,1.7-1.7,1.8-2.6c0.3-3.5-1.4-6.9-6.1-12.8c2,0,3.5,0,5.1,0c6,0,8.9-3,9-9.2c0-11.7,0-23.5,0-35.2
		c0-1,0-2.1,0.1-3.1c0.1-1.9,1.6-3.4,3.5-3.3c0.1,0,0.2,0,0.2,0c1.9-0.1,3.5,1.4,3.6,3.3c0.1,0.8,0.1,1.6,0.1,2.5
		c0,15.1,0,30.3,0,45.4c0,11.6-6.8,18.6-18.4,19c-5.4,0.2-10.9,0.4-16.2-2.8v94.4c-26.4,2.6-52.7,4.4-80-0.1c2.6-3.7,4.6-7,7.1-9.9
		c6.4-7.4,15.1-12.4,24.6-14.2c1.3-0.4,2.3-1.3,2.9-2.5c2.4-6.2,4.5-12.6,6.9-19.6c2.3,6.4,4.5,12.1,6.4,18c0.6,2.7,2.8,4.7,5.5,5.1
		c7.2,1.8,13.7,5.7,18.6,11.2c0.1-1.6,0.1-2.6,0.2-3.6c0-14.1-0.1-28.2,0.1-42.3c0-2.5-0.8-3.6-3.1-4.5
		c-45-17.9-95.4,10.5-103.5,58.2c-6.4,37.8,15.2,74.3,51.8,85.9c46.6,14.8,92.3-16,99.1-60.5c4-26.1-3.7-48.5-22.3-67.2
		c-2.6-2.6-2.8-6.4-0.3-8.8c2.3-2.4,6-2.4,8.4-0.2c0.2,0.1,0.3,0.3,0.4,0.5c12.5,14.5,22.2,30.3,25,49.7
		c3.5,24.6-1.7,47.2-16.9,66.8c-18.6,23.9-43.4,35.5-73.8,34.4c-41.3-1.5-76.6-32.6-82.8-74.9c-6.7-45.7,24.1-89.7,69.1-98.6
		c15.1-3,30.7-2.1,45.3,2.8C188.5,118.8,189.7,119,191.1,119.4z"/>
	<path class="st0" d="M113.8,199.6c0.7,2.4,1.1,4.6,1.9,6.6c1,2.7,3.3,4.8,6.2,5.6c8,2.4,16.1,4.9,24.1,7.3c7.1,2.1,10.7,0,13.2-7.5
		c0.4,0.9,0.7,1.6,1,2.3c2,4.9,5.7,6.9,10.9,5.5c8.8-2.4,17.5-5,26.2-7.8c4-1.3,5.8-4.6,6.7-8.6c0.2-1.1,0.4-2.2,0.6-3.3
		c7,1.9,10.4,11.5,6.6,18.5c-1.6,3-4.2,5.4-7.4,6.7c-1.4,0.6-2.5,1.8-3.2,3.2c-7.3,17.3-23.5,28.3-41.6,28.1s-34.1-11.3-41.2-28.7
		c-0.7-1.2-1.9-2.2-3.2-2.7c-5.1-2.3-8.5-7.2-8.8-12.8C105.7,206.7,108.8,201.8,113.8,199.6z"/>
	<path class="st0" d="M191.1,69.9v-9.7c0-8,0-16,0-24c0-3.7,1.3-5.4,4-5.4s3.8,1.7,3.9,5.2c0,9.2-0.1,18.5,0.1,27.8
		c0,2-0.6,2.9-2.5,3.4C194.6,67.9,192.8,68.8,191.1,69.9z"/>
	<path class="st0" d="M210.5,66.1h-7.7c0-2.7-0.4-5.4,0.2-7.9c0.6-1.6,1.9-2.9,3.6-3.4c2.1-0.5,3.7,1.1,3.9,3.3
		C210.6,60.6,210.5,63.2,210.5,66.1z"/>
	<path class="st0" d="M222,66.8l-7.6-0.9c0-2.5-0.1-4.9,0-7.3s1.4-3.9,3.8-3.9c1.9-0.2,3.6,1.2,3.7,3.1c0,0.2,0,0.3,0,0.5
		C222.1,61,222,63.8,222,66.8z"/>
</g>
</svg>
