<svg id="Слой_1" data-name="Слой 1" xmlns="http://www.w3.org/2000/svg" viewBox="0 0 800 800"><defs><style>.cls-1{fill:#fff;}</style></defs><path class="cls-1" d="M400,750C207,750,50,593,50,400S207,50,400,50,750,207,750,400,593,750,400,750Zm0-688.55C213.32,61.45,61.45,213.32,61.45,400S213.32,738.55,400,738.55,738.55,586.68,738.55,400,586.68,61.45,400,61.45Z"/><path class="cls-1" d="M344.48,607.54c-4.91-.58-9.84-1-14.73-1.76A126.5,126.5,0,0,1,292.2,594a131.79,131.79,0,0,1,25.9-246.19,133.74,133.74,0,0,1,49.61-2.87,2.28,2.28,0,0,1,.55.24v72.49c-3.56-.67-7.17-1.56-10.83-2A60.44,60.44,0,0,0,291.5,461a58,58,0,0,0,4.1,40.58c9.11,18.53,24,29.89,44.3,33.61a60,60,0,0,0,68.37-43,66.54,66.54,0,0,0,2.39-17.3q.21-139.56.1-279.12v-3.3H482c.34,27.26,10,50.8,29.41,70s42.78,28.79,70.18,29.28v70.84c-36.36-.17-69.31-10.74-99.27-31.6a14.89,14.89,0,0,0-.18,1.67c0,41.44.08,82.88,0,124.33,0,11.19.09,22.44-1,33.55-2.22,22.69-10.4,43.3-23.7,61.84a129.92,129.92,0,0,1-48.92,41.51,127.32,127.32,0,0,1-44.93,12.85c-2.46.22-4.91.55-7.36.83Z"/></svg>