<svg viewBox="0 0 800 800"><defs><style>.cls-1{fill:#fff;}</style></defs><path class="cls-1" d="M400,750C207,750,50,593,50,400S207,50,400,50,750,207,750,400,593,750,400,750Zm0-688.55C213.32,61.45,61.45,213.32,61.45,400S213.32,738.55,400,738.55,738.55,586.68,738.55,400,586.68,61.45,400,61.45Z"/><path class="cls-1" d="M586,271.67,529.55,538c-4.26,18.79-15.37,23.47-31.16,14.62l-86-63.4L370.85,529.1c-4.59,4.59-8.43,8.43-17.29,8.43l6.18-87.62L519.19,305.83c6.94-6.18-1.5-9.6-10.77-3.42L311.3,426.53,226.44,400c-18.46-5.77-18.79-18.46,3.84-27.32L562.2,244.78C577.57,239,591,248.2,586,271.67Z"/></svg>