<svg id="Слой_1" data-name="Слой 1" xmlns="http://www.w3.org/2000/svg" viewBox="0 0 800 800"><defs><style>.cls-1{fill:#fff;}</style></defs><path class="cls-1" d="M400,750C207,750,50,593,50,400S207,50,400,50,750,207,750,400,593,750,400,750Zm0-688.55C213.32,61.45,61.45,213.32,61.45,400S213.32,738.55,400,738.55,738.55,586.68,738.55,400,586.68,61.45,400,61.45Z"/><path class="cls-1" d="M212.92,588.54c.51-2.14.7-3.34,1.08-4.47,10-29.69,19.91-59.39,30.09-89,1.36-4,.75-7-1.2-10.43a175.12,175.12,0,0,1-21.39-63.09,183.12,183.12,0,0,1,15.22-104.07,175.67,175.67,0,0,1,35.61-51.31c27.87-27.83,61.23-45.54,100.3-52,42.87-7.1,83.56-.33,121.2,21.21,47.09,26.94,76.61,67.4,88.86,120.28a169.26,169.26,0,0,1,4.22,45.75c-1.83,42-15.67,79.55-42.93,111.81C515.42,547,479.3,568.11,435.74,575.85c-40.51,7.19-79.34,1.53-116.06-17.29a12.14,12.14,0,0,0-10.12-.8q-45.71,14.85-91.49,29.42C216.74,587.6,215.38,587.89,212.92,588.54Zm48-47.64c2.48-.73,3.83-1.1,5.17-1.53,16.13-5.19,32.27-10.34,48.37-15.63a8.56,8.56,0,0,1,8,.88c31.37,19.79,65.75,27,102.22,21.84,37.77-5.32,69.57-22.74,94.42-51.91,27.2-31.93,39.52-68.89,36.64-110.87a145,145,0,0,0-15.33-56c-17.41-34.35-43.91-59.26-79.58-74a147,147,0,0,0-86.63-8.58c-35.77,7.18-65.6,24.85-88.76,53.07C258.54,331,247,368.8,251.16,411A144.55,144.55,0,0,0,277,480.78a9.14,9.14,0,0,1,1.34,9.13c-3.91,11.16-7.55,22.41-11.33,33.61C265.1,529,263.16,534.47,260.93,540.9Z"/><path class="cls-1" d="M347.12,311.91c10.29,0,11.49.81,15.26,9.89,4.37,10.5,8.69,21,13.16,31.47,1.4,3.28,1.67,6.43-.39,9.33-3.54,5-7.11,9.93-11.07,14.55-2.52,2.94-3,5.47-1,8.8,14.55,24.66,35,42.42,61.69,52.9,3,1.17,5.57.72,7.66-1.81,4.52-5.5,9.11-10.93,13.51-16.53,3.66-4.65,5.46-5.59,10.91-3.11C469,423,481,428.87,493,434.63c3.77,1.8,4,5.16,3.92,8.7-.76,24.14-18.95,33.65-36.63,37.36-14.05,2.95-26.5-3.17-39.28-7.29-37-11.9-63.44-36.95-85.22-67.93-8.14-11.57-16-23.27-19.22-37.29-4.57-19.69.09-36.85,14.64-51.13C335.89,312.49,341.7,311.65,347.12,311.91Z"/></svg>