<svg id="Слой_1" data-name="Слой 1" xmlns="http://www.w3.org/2000/svg" viewBox="0 0 800 800"><defs><style>.cls-1{fill:#a00000;}.cls-2{fill:#fff;}</style></defs><circle class="cls-1" cx="400" cy="400" r="350"/><path class="cls-2" d="M209.81,591.67c.52-2.17.71-3.39,1.1-4.54,10.15-30.18,20.24-60.37,30.58-90.48,1.39-4,.77-7.14-1.22-10.6a178.27,178.27,0,0,1-21.74-64.14A186.15,186.15,0,0,1,234,316.11,178.29,178.29,0,0,1,270.21,264c28.33-28.29,62.25-46.3,102-52.87,43.59-7.21,84.95-.33,123.22,21.56,47.87,27.39,77.88,68.53,90.34,122.29A172.38,172.38,0,0,1,590,401.44c-1.86,42.72-15.93,80.87-43.65,113.66-29,34.35-65.75,55.8-110,63.67-41.18,7.32-80.66,1.56-118-17.57a12.33,12.33,0,0,0-10.3-.81q-46.46,15.09-93,29.9C213.7,590.72,212.31,591,209.81,591.67Zm48.81-48.42c2.52-.75,3.9-1.12,5.26-1.56,16.39-5.28,32.8-10.52,49.17-15.89a8.68,8.68,0,0,1,8.14.89c31.9,20.12,66.84,27.43,103.92,22.21,38.4-5.41,70.73-23.12,96-52.78,27.65-32.46,40.18-70,37.25-112.71a147.1,147.1,0,0,0-15.59-57c-17.69-34.92-44.64-60.25-80.9-75.21a149.47,149.47,0,0,0-88.07-8.72c-36.37,7.3-66.69,25.26-90.23,53.94-27.37,33.36-39.13,71.83-34.88,114.77a147,147,0,0,0,26.22,70.9,9.29,9.29,0,0,1,1.36,9.29c-4,11.34-7.67,22.78-11.51,34.16C262.86,531.16,260.89,536.71,258.62,543.25Z"/><path class="cls-2" d="M346.24,310.45c10.46,0,11.69.82,15.52,10.05,4.43,10.68,8.83,21.37,13.38,32,1.42,3.32,1.69,6.53-.41,9.48-3.59,5-7.22,10.1-11.25,14.79-2.56,3-3.05,5.57-1.06,9,14.8,25.06,35.57,43.12,62.72,53.77,3.05,1.2,5.66.74,7.78-1.84,4.6-5.58,9.27-11.11,13.74-16.79,3.72-4.73,5.56-5.69,11.1-3.17,12.36,5.64,24.55,11.66,36.82,17.52,3.83,1.83,4.09,5.25,4,8.84-.77,24.54-19.26,34.21-37.24,38-14.28,3-26.94-3.22-39.93-7.41-37.59-12.1-64.49-37.56-86.64-69.06-8.27-11.76-16.23-23.65-19.54-37.9-4.64-20,.09-37.47,14.89-52C334.82,311,340.73,310.18,346.24,310.45Z"/></svg>